<svg width="119" height="128" viewBox="0 0 119 128" fill="none" xmlns="http://www.w3.org/2000/svg">
<rect width="119" height="128" fill="#23AB72"/>
<path d="M69.5001 68L75.5001 74.6C75.7742 74.8795 75.9602 75.2334 76.0351 75.6176C76.11 76.0019 76.0705 76.3997 75.9214 76.7617C75.7723 77.1237 75.5203 77.434 75.1966 77.6541C74.8728 77.8742 74.4916 77.9945 74.1001 78H44.9001C44.5087 77.9945 44.1274 77.8742 43.8037 77.6541C43.48 77.434 43.2279 77.1237 43.0789 76.7617C42.9298 76.3997 42.8903 76.0019 42.9652 75.6176C43.04 75.2334 43.226 74.8795 43.5001 74.6L49.5001 68H48.9001C48.5087 67.9945 48.1274 67.8742 47.8037 67.6541C47.48 67.434 47.2279 67.1237 47.0789 66.7617C46.9298 66.3997 46.8903 66.0019 46.9652 65.6176C47.04 65.2334 47.226 64.8795 47.5001 64.6L53.5001 58H53.1001C52.6916 58.0369 52.2817 57.9472 51.9258 57.7432C51.57 57.5393 51.2855 57.2308 51.1108 56.8597C50.9362 56.4886 50.8798 56.0727 50.9495 55.6685C51.0191 55.2643 51.2114 54.8913 51.5001 54.6L59.5001 46L67.5001 54.6C67.7889 54.8913 67.9811 55.2643 68.0508 55.6685C68.1204 56.0727 68.0641 56.4886 67.8895 56.8597C67.7148 57.2308 67.4303 57.5393 67.0744 57.7432C66.7186 57.9472 66.3086 58.0369 65.9001 58H65.5001L71.5001 64.6C71.7742 64.8795 71.9602 65.2334 72.0351 65.6176C72.11 66.0019 72.0705 66.3997 71.9214 66.7617C71.7723 67.1237 71.5203 67.434 71.1966 67.6541C70.8728 67.8742 70.4916 67.9945 70.1001 68H69.5001Z" stroke="white" stroke-width="4" stroke-linecap="round" stroke-linejoin="round"/>
<path d="M59.5 84V78" stroke="white" stroke-width="4" stroke-linecap="round" stroke-linejoin="round"/>
</svg>
