<svg width="119" height="126" viewBox="0 0 119 126" fill="none" xmlns="http://www.w3.org/2000/svg">
<rect width="119" height="126" fill="#23AB72"/>
<g clip-path="url(#clip0_5212_3419)">
<path d="M99.5827 86.1431L81.5663 62.9997H90.8408C91.4261 62.9999 91.9997 62.836 92.4966 62.5268C92.9935 62.2175 93.3939 61.7754 93.6522 61.2502C93.9107 60.7252 94.017 60.1382 93.959 59.5558C93.901 58.9734 93.681 58.4189 93.3239 57.9552L61.991 17.2224C61.6983 16.8421 61.3222 16.5341 60.8916 16.3222C60.4612 16.1102 59.9878 16 59.5078 16C59.028 16 58.5545 16.1102 58.124 16.3222C57.6935 16.5341 57.3174 16.8421 57.0248 17.2224L25.6918 57.9552C25.3348 58.4189 25.1148 58.9734 25.0568 59.5558C24.9988 60.1382 25.105 60.7252 25.3635 61.2502C25.6219 61.7754 26.0223 62.2175 26.5192 62.5268C27.0161 62.836 27.5897 62.9999 28.1749 62.9997H37.4339L19.4174 86.1431C19.0565 86.6072 18.8336 87.1635 18.774 87.7486C18.7144 88.3335 18.8205 88.9234 19.0804 89.4508C19.3402 89.9782 19.7432 90.4219 20.2433 90.7311C20.7434 91.0404 21.3204 91.2026 21.9084 91.1994H56.3745V106.866C56.3745 107.697 56.7046 108.494 57.2923 109.081C57.8799 109.669 58.6769 109.999 59.5078 109.999C60.3388 109.999 61.1358 109.669 61.7234 109.081C62.3111 108.494 62.6412 107.697 62.6412 106.866V91.1994H97.1073C97.694 91.1997 98.2689 91.0353 98.7667 90.7249C99.2646 90.4146 99.6651 89.9706 99.9232 89.4438C100.181 88.9169 100.286 88.3281 100.226 87.7446C100.166 87.1611 99.9426 86.6062 99.5827 86.1431ZM28.3159 84.9328L46.3325 61.7896C46.6932 61.3253 46.9163 60.769 46.9759 60.184C47.0355 59.5991 46.9292 59.0092 46.6694 58.4818C46.4096 57.9542 46.0065 57.5106 45.5064 57.2014C45.0063 56.8922 44.4294 56.7299 43.8414 56.7333H34.5395L59.5078 24.2723L84.4763 56.7333H75.1743C74.5881 56.7336 74.0137 56.8986 73.5165 57.2092C73.0192 57.5198 72.6192 57.9638 72.3616 58.4906C72.1042 59.0174 71.9997 59.6057 72.06 60.189C72.1204 60.7722 72.3431 61.3266 72.7029 61.7896L90.6998 84.9328H28.3159Z" fill="#FFFFFB"/>
</g>
<defs>
<clipPath id="clip0_5212_3419">
<rect width="81.4844" height="94" fill="white" transform="translate(18.7578 16)"/>
</clipPath>
</defs>
</svg>
