<svg width="119" height="126" viewBox="0 0 119 126" fill="none" xmlns="http://www.w3.org/2000/svg">
<rect width="119" height="126" fill="#DD707B"/>
<g clip-path="url(#clip0_5212_3484)">
<path d="M102.79 54.6516L97.7147 41.9641C97.2842 40.8906 96.5412 39.9711 95.5821 39.3248C94.6229 38.6785 93.4918 38.3351 92.3353 38.3391H79.8V35.4391C79.8 34.6699 79.4945 33.9323 78.9506 33.3885C78.4067 32.8446 77.6691 32.5391 76.9 32.5391H21.8C20.2617 32.5391 18.7865 33.1501 17.6988 34.2378C16.6111 35.3255 16 36.8008 16 38.3391V78.939C16 80.4773 16.6111 81.9526 17.6988 83.0403C18.7865 84.1279 20.2617 84.7391 21.8 84.7391H27.9625C28.6013 87.2342 30.0525 89.4459 32.0872 91.0252C34.1219 92.6046 36.6243 93.4618 39.2 93.4618C41.7757 93.4618 44.2781 92.6046 46.3128 91.0252C48.3475 89.4459 49.7986 87.2342 50.4375 84.7391H68.5625C69.2014 87.2342 70.6525 89.4459 72.6872 91.0252C74.7219 92.6046 77.2243 93.4618 79.8 93.4618C82.3757 93.4618 84.8782 92.6046 86.9128 91.0252C88.9475 89.4459 90.3987 87.2342 91.0375 84.7391H97.2C98.7382 84.7391 100.214 84.1279 101.301 83.0403C102.389 81.9526 103 80.4773 103 78.939V55.7391C103.001 55.3664 102.93 54.997 102.79 54.6516ZM79.8 44.1391H92.3353L95.8153 52.839H79.8V44.1391ZM21.8 38.3391H74V61.539H21.8V38.3391ZM39.2 87.639C38.0529 87.639 36.9315 87.2989 35.9777 86.6616C35.0239 86.0243 34.2804 85.1184 33.8415 84.0586C33.4025 82.9988 33.2876 81.8326 33.5115 80.7075C33.7352 79.5824 34.2876 78.549 35.0987 77.7378C35.91 76.9267 36.9434 76.3743 38.0684 76.1505C39.1936 75.9267 40.3598 76.0415 41.4195 76.4805C42.4793 76.9195 43.3852 77.663 44.0226 78.6167C44.6598 79.5705 45 80.6919 45 81.8391C45 83.3773 44.389 84.8525 43.3012 85.9403C42.2135 87.028 40.7382 87.639 39.2 87.639ZM68.5625 78.939H50.4375C49.7986 76.4439 48.3475 74.2322 46.3128 72.6529C44.2781 71.0736 41.7757 70.2163 39.2 70.2163C36.6243 70.2163 34.1219 71.0736 32.0872 72.6529C30.0525 74.2322 28.6013 76.4439 27.9625 78.939H21.8V67.3391H74V71.8014C72.6665 72.5722 71.4992 73.6001 70.5658 74.8253C69.6324 76.0505 68.9516 77.4487 68.5625 78.939ZM79.8 87.639C78.6528 87.639 77.5315 87.2989 76.5777 86.6616C75.6238 86.0243 74.8805 85.1184 74.4415 84.0586C74.0025 82.9988 73.8877 81.8326 74.1114 80.7075C74.3352 79.5824 74.8877 78.549 75.6988 77.7378C76.5099 76.9267 77.5434 76.3743 78.6685 76.1505C79.7935 75.9267 80.9598 76.0415 82.0196 76.4805C83.0794 76.9195 83.9852 77.663 84.6225 78.6167C85.2598 79.5705 85.6 80.6919 85.6 81.8391C85.6 83.3773 84.9889 84.8525 83.9013 85.9403C82.8135 87.028 81.3382 87.639 79.8 87.639ZM97.2 78.939H91.0375C90.391 76.45 88.9371 74.2455 86.9035 72.6712C84.8699 71.0968 82.3717 70.2415 79.8 70.239V58.6391H97.2V78.939Z" fill="#FFFFFB"/>
</g>
<defs>
<clipPath id="clip0_5212_3484">
<rect width="87" height="94" fill="white" transform="translate(16 16)"/>
</clipPath>
</defs>
</svg>
