<svg width="119" height="126" viewBox="0 0 119 126" fill="none" xmlns="http://www.w3.org/2000/svg">
<rect width="119" height="126" fill="#1A548A"/>
<g clip-path="url(#clip0_5212_3352)">
<path d="M78.7982 32.6825C73.6152 26.6965 67.7815 21.3062 61.4054 16.6114C60.841 16.216 60.1685 16.0039 59.4793 16.0039C58.7902 16.0039 58.1178 16.216 57.5533 16.6114C51.1888 21.3082 45.3666 26.6984 40.194 32.6825C28.6589 45.9296 22.5703 59.8943 22.5703 73.0701C22.5703 82.8635 26.4607 92.2557 33.3856 99.1807C40.3105 106.106 49.7027 109.996 59.4962 109.996C69.2895 109.996 78.6817 106.106 85.6067 99.1807C92.5315 92.2557 96.4219 82.8635 96.4219 73.0701C96.4219 59.8943 90.3334 45.9296 78.7982 32.6825ZM59.4962 103.282C51.4862 103.273 43.8067 100.087 38.1428 94.4235C32.4789 88.7596 29.293 81.0801 29.2841 73.0701C29.2841 49.0558 52.5599 29.0109 59.4962 23.556C66.4323 29.0109 89.7081 49.0474 89.7081 73.0701C89.6992 81.0801 86.5134 88.7596 80.8495 94.4235C75.1855 100.087 67.5062 103.273 59.4962 103.282Z" fill="#FFFFFB"/>
</g>
<defs>
<clipPath id="clip0_5212_3352">
<rect width="73.8516" height="94" fill="white" transform="translate(22.5703 16)"/>
</clipPath>
</defs>
</svg>
