<svg width="119" height="128" viewBox="0 0 119 128" fill="none" xmlns="http://www.w3.org/2000/svg">
<rect width="119" height="128" fill="#DD707B"/>
<path d="M63.5 76V52C63.5 50.9391 63.0786 49.9217 62.3284 49.1716C61.5783 48.4214 60.5609 48 59.5 48H43.5C42.4391 48 41.4217 48.4214 40.6716 49.1716C39.9214 49.9217 39.5 50.9391 39.5 52V74C39.5 74.5304 39.7107 75.0391 40.0858 75.4142C40.4609 75.7893 40.9696 76 41.5 76H45.5" stroke="white" stroke-width="4" stroke-linecap="round" stroke-linejoin="round"/>
<path d="M65.5 76H53.5" stroke="white" stroke-width="4" stroke-linecap="round" stroke-linejoin="round"/>
<path d="M73.5 76H77.5C78.0304 76 78.5391 75.7893 78.9142 75.4142C79.2893 75.0391 79.5 74.5304 79.5 74V66.7C79.4992 66.2461 79.344 65.806 79.06 65.452L72.1 56.752C71.9129 56.5178 71.6756 56.3286 71.4056 56.1984C71.1356 56.0682 70.8398 56.0004 70.54 56H63.5" stroke="white" stroke-width="4" stroke-linecap="round" stroke-linejoin="round"/>
<path d="M69.5 80C71.7091 80 73.5 78.2091 73.5 76C73.5 73.7909 71.7091 72 69.5 72C67.2909 72 65.5 73.7909 65.5 76C65.5 78.2091 67.2909 80 69.5 80Z" stroke="white" stroke-width="4" stroke-linecap="round" stroke-linejoin="round"/>
<path d="M49.5 80C51.7091 80 53.5 78.2091 53.5 76C53.5 73.7909 51.7091 72 49.5 72C47.2909 72 45.5 73.7909 45.5 76C45.5 78.2091 47.2909 80 49.5 80Z" stroke="white" stroke-width="4" stroke-linecap="round" stroke-linejoin="round"/>
</svg>
