<svg width="36" height="36" viewBox="0 0 36 36" fill="none" xmlns="http://www.w3.org/2000/svg">
<path d="M0 10C0 4.47715 4.47715 0 10 0H26C31.5228 0 36 4.47715 36 10V26C36 31.5228 31.5228 36 26 36H10C4.47715 36 0 31.5228 0 26V10Z" fill="#FFF7ED"/>
<path d="M24.6663 16.3332C24.6663 20.494 20.0505 24.8273 18.5005 26.1657C18.3561 26.2742 18.1803 26.333 17.9997 26.333C17.819 26.333 17.6432 26.2742 17.4988 26.1657C15.9488 24.8273 11.333 20.494 11.333 16.3332C11.333 14.5651 12.0354 12.8694 13.2856 11.6191C14.5359 10.3689 16.2316 9.6665 17.9997 9.6665C19.7678 9.6665 21.4635 10.3689 22.7137 11.6191C23.964 12.8694 24.6663 14.5651 24.6663 16.3332Z" stroke="#F54900" stroke-width="1.66667" stroke-linecap="round" stroke-linejoin="round"/>
<path d="M18 18.8335C19.3807 18.8335 20.5 17.7142 20.5 16.3335C20.5 14.9528 19.3807 13.8335 18 13.8335C16.6193 13.8335 15.5 14.9528 15.5 16.3335C15.5 17.7142 16.6193 18.8335 18 18.8335Z" stroke="#F54900" stroke-width="1.66667" stroke-linecap="round" stroke-linejoin="round"/>
</svg>
