<svg width="119" height="128" viewBox="0 0 119 128" fill="none" xmlns="http://www.w3.org/2000/svg">
<rect width="119" height="128" fill="#9870DD"/>
<path d="M79.5 55.3998C79.5 54.1998 78.7 52.9998 77.9 52.3998L65.3 44.5998C64.7818 44.3053 64.196 44.1504 63.6 44.1504C63.004 44.1504 62.4182 44.3053 61.9 44.5998L41.3 56.5998C40.3 56.9998 39.5 58.1998 39.5 59.3998V72.5998C39.5 73.5998 40.3 74.9998 41.1 75.5998L53.7 83.3998C54.2182 83.6944 54.804 83.8492 55.4 83.8492C55.996 83.8492 56.5818 83.6944 57.1 83.3998L77.7 71.3998C78.7 70.7998 79.5 69.3998 79.5 68.3998V55.3998Z" stroke="white" stroke-width="4" stroke-linecap="round" stroke-linejoin="round"/>
<path d="M55.5002 83.8002V68.0002L39.7002 58.2002" stroke="white" stroke-width="4" stroke-linecap="round" stroke-linejoin="round"/>
<path d="M55.5 68.0002L79.3 54.2002" stroke="white" stroke-width="4" stroke-linecap="round" stroke-linejoin="round"/>
<path d="M63.5 79.6004V63.4004" stroke="white" stroke-width="4" stroke-linecap="round" stroke-linejoin="round"/>
<path d="M71.5 74.9998V58.7998" stroke="white" stroke-width="4" stroke-linecap="round" stroke-linejoin="round"/>
</svg>
