<svg width="40" height="40" viewBox="0 0 40 40" fill="none" xmlns="http://www.w3.org/2000/svg">
<rect width="40" height="40" rx="5" fill="#9870DD"/>
<path d="M31.1966 17.8408L29.8841 14.5596C29.7727 14.2818 29.5804 14.0439 29.3321 13.8767C29.0839 13.7096 28.7912 13.6209 28.4919 13.6221H25.25V12.8721C25.25 12.6732 25.171 12.4824 25.0303 12.3417C24.8897 12.2011 24.6989 12.1221 24.5 12.1221C24.3011 12.1221 24.1103 12.2011 23.9697 12.3417C23.829 12.4824 23.75 12.6732 23.75 12.8721V22.2761C23.4051 22.4755 23.1032 22.7413 22.8619 23.0582C22.6205 23.375 22.4444 23.7366 22.3438 24.1221H17.6563C17.491 23.4768 17.1157 22.9048 16.5895 22.4963C16.0633 22.0879 15.4161 21.8662 14.75 21.8662C14.0839 21.8662 13.4367 22.0879 12.9105 22.4963C12.3843 22.9048 12.009 23.4768 11.8438 24.1221H10.25V19.6221C10.25 19.4232 10.171 19.2324 10.0303 19.0917C9.88968 18.9511 9.69891 18.8721 9.5 18.8721C9.30109 18.8721 9.11032 18.9511 8.96967 19.0917C8.82902 19.2324 8.75 19.4232 8.75 19.6221V24.1221C8.75 24.5199 8.90804 24.9014 9.18934 25.1827C9.47064 25.464 9.85218 25.6221 10.25 25.6221H11.8438C12.009 26.2674 12.3843 26.8393 12.9105 27.2478C13.4367 27.6563 14.0839 27.878 14.75 27.878C15.4161 27.878 16.0633 27.6563 16.5895 27.2478C17.1157 26.8393 17.491 26.2674 17.6563 25.6221H22.3438C22.509 26.2674 22.8843 26.8393 23.4105 27.2478C23.9367 27.6563 24.5839 27.878 25.25 27.878C25.9161 27.878 26.5633 27.6563 27.0895 27.2478C27.6157 26.8393 27.991 26.2674 28.1563 25.6221H29.75C30.1478 25.6221 30.5294 25.464 30.8107 25.1827C31.092 24.9014 31.25 24.5199 31.25 24.1221V18.1221C31.2506 18.0257 31.2325 17.9302 31.1966 17.8408ZM28.4919 15.1221L29.3919 17.3721H25.25V15.1221H28.4919ZM14.75 26.3721C14.4533 26.3721 14.1633 26.2841 13.9166 26.1193C13.67 25.9545 13.4777 25.7202 13.3642 25.4461C13.2506 25.172 13.2209 24.8704 13.2788 24.5794C13.3367 24.2885 13.4796 24.0212 13.6893 23.8114C13.8991 23.6016 14.1664 23.4588 14.4574 23.4009C14.7483 23.343 15.0499 23.3727 15.324 23.4863C15.5981 23.5998 15.8324 23.792 15.9972 24.0387C16.162 24.2854 16.25 24.5754 16.25 24.8721C16.25 25.2699 16.092 25.6514 15.8107 25.9327C15.5294 26.214 15.1478 26.3721 14.75 26.3721ZM25.25 26.3721C24.9533 26.3721 24.6633 26.2841 24.4166 26.1193C24.17 25.9545 23.9777 25.7202 23.8642 25.4461C23.7507 25.172 23.7209 24.8704 23.7788 24.5794C23.8367 24.2885 23.9796 24.0212 24.1893 23.8114C24.3991 23.6016 24.6664 23.4588 24.9574 23.4009C25.2483 23.343 25.5499 23.3727 25.824 23.4863C26.0981 23.5998 26.3324 23.792 26.4972 24.0387C26.662 24.2854 26.75 24.5754 26.75 24.8721C26.75 25.2699 26.592 25.6514 26.3107 25.9327C26.0294 26.214 25.6478 26.3721 25.25 26.3721ZM28.1563 24.1221C27.989 23.4783 27.613 22.9082 27.0871 22.5011C26.5612 22.0939 25.9151 21.8727 25.25 21.8721V18.8721H29.75V24.1221H28.1563ZM9.5 15.8721C9.30109 15.8721 9.11032 15.9511 8.96967 16.0917C8.82902 16.2324 8.75 16.4232 8.75 16.6221C8.75 16.821 8.82902 17.0117 8.96967 17.1524C9.11032 17.2931 9.30109 17.3721 9.5 17.3721H21.5C21.6989 17.3721 21.8897 17.2931 22.0303 17.1524C22.171 17.0117 22.25 16.821 22.25 16.6221C22.25 16.4232 22.171 16.2324 22.0303 16.0917C21.8897 15.9511 21.6989 15.8721 21.5 15.8721H20V13.6221H21.5C21.6989 13.6221 21.8897 13.5431 22.0303 13.4024C22.171 13.2617 22.25 13.071 22.25 12.8721C22.25 12.6732 22.171 12.4824 22.0303 12.3417C21.8897 12.2011 21.6989 12.1221 21.5 12.1221H9.5C9.30109 12.1221 9.11032 12.2011 8.96967 12.3417C8.82902 12.4824 8.75 12.6732 8.75 12.8721C8.75 13.071 8.82902 13.2617 8.96967 13.4024C9.11032 13.5431 9.30109 13.6221 9.5 13.6221H11V15.8721H9.5ZM18.5 15.8721H16.25V13.6221H18.5V15.8721ZM12.5 13.6221H14.75V15.8721H12.5V13.6221Z" fill="white"/>
</svg>
