<svg width="36" height="36" viewBox="0 0 36 36" fill="none" xmlns="http://www.w3.org/2000/svg">
<path d="M0 10C0 4.47715 4.47715 0 10 0H26C31.5228 0 36 4.47715 36 10V26C36 31.5228 31.5228 36 26 36H10C4.47715 36 0 31.5228 0 26V10Z" fill="#EFF6FF"/>
<path d="M18.0003 26.3333C19.5474 26.3333 21.0312 25.7188 22.1251 24.6248C23.2191 23.5308 23.8337 22.0471 23.8337 20.5C23.8337 18.8333 23.0003 17.25 21.3337 15.9167C19.667 14.5833 18.417 12.5833 18.0003 10.5C17.5837 12.5833 16.3337 14.5833 14.667 15.9167C13.0003 17.25 12.167 18.8333 12.167 20.5C12.167 22.0471 12.7816 23.5308 13.8755 24.6248C14.9695 25.7188 16.4532 26.3333 18.0003 26.3333Z" stroke="#155DFC" stroke-width="1.66667" stroke-linecap="round" stroke-linejoin="round"/>
</svg>
