<svg width="17" height="14" viewBox="0 0 17 14" fill="none" xmlns="http://www.w3.org/2000/svg">
<path d="M14.3133 2.88183H13.2564V0.576367C13.2564 0.423505 13.1957 0.276904 13.0876 0.168814C12.9795 0.0607243 12.8329 0 12.6801 0H3.4582C3.30534 0 3.15874 0.0607243 3.05065 0.168814C2.94256 0.276904 2.88183 0.423505 2.88183 0.576367V2.88183H1.82492C0.818441 2.88183 0 3.65777 0 4.61093V10.3746C0 10.5275 0.0607241 10.6741 0.168814 10.7822C0.276904 10.8902 0.423505 10.951 0.576367 10.951H2.88183V13.2564C2.88183 13.4093 2.94256 13.5559 3.05065 13.664C3.15874 13.7721 3.30534 13.8328 3.4582 13.8328H12.6801C12.8329 13.8328 12.9795 13.7721 13.0876 13.664C13.1957 13.5559 13.2564 13.4093 13.2564 13.2564V10.951H15.5619C15.7148 10.951 15.8614 10.8902 15.9694 10.7822C16.0775 10.6741 16.1383 10.5275 16.1383 10.3746V4.61093C16.1383 3.65777 15.3198 2.88183 14.3133 2.88183ZM4.03457 1.15273H12.1037V2.88183H4.03457V1.15273ZM12.1037 12.6801H4.03457V9.22187H12.1037V12.6801ZM14.9855 9.79823H13.2564V8.6455C13.2564 8.49264 13.1957 8.34604 13.0876 8.23795C12.9795 8.12986 12.8329 8.06913 12.6801 8.06913H3.4582C3.30534 8.06913 3.15874 8.12986 3.05065 8.23795C2.94256 8.34604 2.88183 8.49264 2.88183 8.6455V9.79823H1.15273V4.61093C1.15273 4.29321 1.45461 4.03457 1.82492 4.03457H14.3133C14.6837 4.03457 14.9855 4.29321 14.9855 4.61093V9.79823ZM13.2564 6.05185C13.2564 6.22284 13.2057 6.38999 13.1107 6.53217C13.0157 6.67434 12.8807 6.78515 12.7227 6.85059C12.5648 6.91603 12.3909 6.93315 12.2232 6.89979C12.0555 6.86643 11.9015 6.78409 11.7806 6.66318C11.6596 6.54227 11.5773 6.38822 11.5439 6.22051C11.5106 6.05281 11.5277 5.87898 11.5931 5.721C11.6586 5.56302 11.7694 5.428 11.9116 5.333C12.0537 5.238 12.2209 5.1873 12.3919 5.1873C12.6212 5.1873 12.8411 5.27839 13.0032 5.44052C13.1653 5.60265 13.2564 5.82256 13.2564 6.05185Z" fill="#4A5565"/>
</svg>
