<svg width="36" height="36" viewBox="0 0 36 36" fill="none" xmlns="http://www.w3.org/2000/svg">
<path d="M0 10C0 4.47715 4.47715 0 10 0H26C31.5228 0 36 4.47715 36 10V26C36 31.5228 31.5228 36 26 36H10C4.47715 36 0 31.5228 0 26V10Z" fill="#FFF7ED"/>
<path d="M24.6663 16.3327C24.6663 20.4935 20.0505 24.8268 18.5005 26.1652C18.3561 26.2738 18.1803 26.3325 17.9997 26.3325C17.819 26.3325 17.6432 26.2738 17.4988 26.1652C15.9488 24.8268 11.333 20.4935 11.333 16.3327C11.333 14.5646 12.0354 12.8689 13.2856 11.6186C14.5359 10.3684 16.2316 9.66602 17.9997 9.66602C19.7678 9.66602 21.4635 10.3684 22.7137 11.6186C23.964 12.8689 24.6663 14.5646 24.6663 16.3327Z" stroke="#F54900" stroke-width="1.66667" stroke-linecap="round" stroke-linejoin="round"/>
<path d="M18 18.834C19.3807 18.834 20.5 17.7147 20.5 16.334C20.5 14.9533 19.3807 13.834 18 13.834C16.6193 13.834 15.5 14.9533 15.5 16.334C15.5 17.7147 16.6193 18.834 18 18.834Z" stroke="#F54900" stroke-width="1.66667" stroke-linecap="round" stroke-linejoin="round"/>
</svg>
