<svg xmlns="http://www.w3.org/2000/svg" width="21" height="21" viewBox="0 0 21 21" fill="none">
  <path d="M20.0806 5.07644L15.4868 0.481924C15.3341 0.329137 15.1527 0.207939 14.9531 0.125249C14.7535 0.04256 14.5396 0 14.3235 0C14.1074 0 13.8935 0.04256 13.6939 0.125249C13.4943 0.207939 13.3129 0.329137 13.1602 0.481924L0.482204 13.1603C0.328785 13.3125 0.207151 13.4936 0.124371 13.6933C0.0415911 13.8929 -0.000682106 14.1069 8.32272e-06 14.323V18.9176C8.32272e-06 19.3538 0.173322 19.7722 0.481823 20.0807C0.790324 20.3892 1.20874 20.5625 1.64503 20.5625H6.23977C6.45588 20.5632 6.66997 20.5209 6.86959 20.4381C7.06922 20.3554 7.25039 20.2337 7.4026 20.0803L20.0806 7.403C20.2333 7.25025 20.3546 7.06889 20.4372 6.86929C20.5199 6.6697 20.5625 6.45576 20.5625 6.23972C20.5625 6.02367 20.5199 5.80974 20.4372 5.61014C20.3546 5.41054 20.2333 5.22919 20.0806 5.07644ZM6.23977 18.9176H1.64503V14.323L10.6926 5.27589L15.2874 9.8704L6.23977 18.9176ZM16.4502 8.70661L11.8555 4.11312L14.323 1.64572L18.9177 6.2392L16.4502 8.70661Z" fill="#707070"/>
</svg>