<svg width="20" height="19" viewBox="0 0 20 19" fill="none" xmlns="http://www.w3.org/2000/svg">
<path d="M20 1.42145V6.26902C20 6.4833 19.9122 6.6888 19.7559 6.84031C19.5996 6.99183 19.3877 7.07695 19.1667 7.07695H14.1667C13.9457 7.07695 13.7337 6.99183 13.5774 6.84031C13.4211 6.6888 13.3333 6.4833 13.3333 6.26902C13.3333 6.05475 13.4211 5.84925 13.5774 5.69773C13.7337 5.54621 13.9457 5.46109 14.1667 5.46109H17.1552L15.6312 3.98359C14.0825 2.47519 11.9797 1.62419 9.78438 1.61737H9.7375C7.5606 1.61242 5.46918 2.4385 3.91562 3.91694C3.75648 4.06097 3.54551 4.13891 3.32786 4.13407C3.1102 4.12923 2.90315 4.042 2.75098 3.89104C2.59881 3.74008 2.51362 3.53738 2.51364 3.32631C2.51365 3.11523 2.59886 2.91254 2.75104 2.7616C4.63388 0.977485 7.16647 -0.0147704 9.7992 0.000166221C12.4319 0.0151029 14.9524 1.03603 16.8135 2.84138L18.3333 4.31888V1.42145C18.3333 1.20717 18.4211 1.00167 18.5774 0.850154C18.7337 0.698638 18.9457 0.613517 19.1667 0.613517C19.3877 0.613517 19.5996 0.698638 19.7559 0.850154C19.9122 1.00167 20 1.20717 20 1.42145ZM16.0844 15.0845C14.5155 16.5704 12.4056 17.3966 10.2124 17.3842C8.01927 17.3717 5.91958 16.5215 4.36875 15.0179L2.84479 13.5404H5.83333C6.05435 13.5404 6.26631 13.4553 6.42259 13.3037C6.57887 13.1522 6.66667 12.9467 6.66667 12.7325C6.66667 12.5182 6.57887 12.3127 6.42259 12.1612C6.26631 12.0096 6.05435 11.9245 5.83333 11.9245H0.833333C0.61232 11.9245 0.400358 12.0096 0.244078 12.1612C0.0877975 12.3127 0 12.5182 0 12.7325V17.58C0 17.7943 0.0877975 17.9998 0.244078 18.1513C0.400358 18.3028 0.61232 18.388 0.833333 18.388C1.05435 18.388 1.26631 18.3028 1.42259 18.1513C1.57887 17.9998 1.66667 17.7943 1.66667 17.58V14.6826L3.19062 16.1601C5.04918 17.9711 7.57333 18.9925 10.2083 19H10.2635C12.8761 19.0065 15.3862 18.0149 17.25 16.2399C17.4022 16.0889 17.4874 15.8862 17.4874 15.6752C17.4874 15.4641 17.4022 15.2614 17.2501 15.1104C17.0979 14.9595 16.8908 14.8723 16.6732 14.8674C16.4555 14.8626 16.2446 14.9405 16.0854 15.0845H16.0844Z" fill="#707070"/>
</svg>
