<svg width="21" height="18" viewBox="0 0 21 18" fill="none" xmlns="http://www.w3.org/2000/svg">
<path d="M20.5172 6.26445C20.5172 6.27476 20.5172 6.28414 20.5108 6.29445L18.4311 16.0323C18.3671 16.3752 18.1881 16.6845 17.925 16.907C17.6619 17.1294 17.3311 17.2511 16.9897 17.251H3.54993C3.20865 17.2509 2.8781 17.1291 2.61517 16.9067C2.35224 16.6842 2.17339 16.375 2.1094 16.0323L0.0297506 6.29445C0.0297506 6.28414 0.0251658 6.27476 0.0233319 6.26445C-0.0335857 5.94205 0.0143011 5.60945 0.159675 5.31749C0.30505 5.02553 0.539917 4.79026 0.82839 4.64763C1.11686 4.505 1.44308 4.46285 1.75719 4.52762C2.0713 4.59239 2.35603 4.76052 2.56787 5.00633L5.65525 8.40851L8.93794 0.881326C8.93809 0.878203 8.93809 0.875074 8.93794 0.871951C9.05532 0.611651 9.24319 0.391187 9.47932 0.236656C9.71544 0.082126 9.98992 0 10.2703 0C10.5506 0 10.8251 0.082126 11.0612 0.236656C11.2973 0.391187 11.4852 0.611651 11.6026 0.871951C11.6024 0.875074 11.6024 0.878203 11.6026 0.881326L14.8853 8.40851L17.9727 5.00633C18.185 4.76235 18.4693 4.59586 18.7826 4.53215C19.0958 4.46843 19.4209 4.51097 19.7083 4.65331C19.9958 4.79564 20.2299 5.02999 20.3753 5.32078C20.5206 5.61156 20.5691 5.94289 20.5135 6.26445H20.5172Z" fill="#80BC51"/>
</svg>
