<svg width="193" height="193" viewBox="0 0 193 193" fill="none" xmlns="http://www.w3.org/2000/svg">
<rect width="193" height="193" fill="#1E1E1E"/>
<path d="M-3921.5 -3063C-3921.5 -3064.1 -3920.6 -3065 -3919.5 -3065H8734.5C8735.6 -3065 8736.5 -3064.1 8736.5 -3063V3537C8736.5 3538.1 8735.6 3539 8734.5 3539H-3919.5C-3920.6 3539 -3921.5 3538.1 -3921.5 3537V-3063Z" fill="#444444"/>
<path d="M-3919.5 -3065V-3064H8734.5V-3065V-3066H-3919.5V-3065ZM8736.5 -3063H8735.5V3537H8736.5H8737.5V-3063H8736.5ZM8734.5 3539V3538H-3919.5V3539V3540H8734.5V3539ZM-3921.5 3537H-3920.5V-3063H-3921.5H-3922.5V3537H-3921.5ZM-3919.5 3539V3538C-3920.05 3538 -3920.5 3537.55 -3920.5 3537H-3921.5H-3922.5C-3922.5 3538.66 -3921.16 3540 -3919.5 3540V3539ZM8736.5 3537H8735.5C8735.5 3537.55 8735.05 3538 8734.5 3538V3539V3540C8736.16 3540 8737.5 3538.66 8737.5 3537H8736.5ZM8734.5 -3065V-3064C8735.05 -3064 8735.5 -3063.55 8735.5 -3063H8736.5H8737.5C8737.5 -3064.66 8736.16 -3066 8734.5 -3066V-3065ZM-3919.5 -3065V-3066C-3921.16 -3066 -3922.5 -3064.66 -3922.5 -3063H-3921.5H-3920.5C-3920.5 -3063.55 -3920.05 -3064 -3919.5 -3064V-3065Z" fill="white" fill-opacity="0.1"/>
<path d="M-3798.5 -582C-3798.5 -583.105 -3797.6 -584 -3796.5 -584H5502.5C5503.6 -584 5504.5 -583.105 5504.5 -582V2068C5504.5 2069.1 5503.6 2070 5502.5 2070H-3796.5C-3797.6 2070 -3798.5 2069.1 -3798.5 2068V-582Z" fill="#444444"/>
<path d="M-3796.5 -584V-583H5502.5V-584V-585H-3796.5V-584ZM5504.5 -582H5503.5V2068H5504.5H5505.5V-582H5504.5ZM5502.5 2070V2069H-3796.5V2070V2071H5502.5V2070ZM-3798.5 2068H-3797.5V-582H-3798.5H-3799.5V2068H-3798.5ZM-3796.5 2070V2069C-3797.05 2069 -3797.5 2068.55 -3797.5 2068H-3798.5H-3799.5C-3799.5 2069.66 -3798.16 2071 -3796.5 2071V2070ZM5504.5 2068H5503.5C5503.5 2068.55 5503.05 2069 5502.5 2069V2070V2071C5504.16 2071 5505.5 2069.66 5505.5 2068H5504.5ZM5502.5 -584V-583C5503.05 -583 5503.5 -582.552 5503.5 -582H5504.5H5505.5C5505.5 -583.657 5504.16 -585 5502.5 -585V-584ZM-3796.5 -584V-585C-3798.16 -585 -3799.5 -583.657 -3799.5 -582H-3798.5H-3797.5C-3797.5 -582.552 -3797.05 -583 -3796.5 -583V-584Z" fill="white" fill-opacity="0.1"/>
<rect width="1440" height="900" transform="translate(-623.5 -282)" fill="#1A548A"/>
<g filter="url(#filter0_d_1_2)">
<rect x="-169.5" y="-89" width="532" height="601" rx="20" fill="#FFFFFB" shape-rendering="crispEdges"/>
<circle cx="96.5" cy="96.5" r="96.5" fill="#80BC51"/>
<path d="M146.51 68.7153L83.0004 132.225C82.4473 132.78 81.79 133.22 81.0663 133.521C80.3426 133.821 79.5666 133.976 78.783 133.976C77.9994 133.976 77.2234 133.821 76.4997 133.521C75.776 133.22 75.1187 132.78 74.5656 132.225L46.7801 104.439C46.2263 103.886 45.7869 103.228 45.4872 102.504C45.1875 101.781 45.0332 101.005 45.0332 100.222C45.0332 99.4388 45.1875 98.6632 45.4872 97.9396C45.7869 97.2159 46.2263 96.5584 46.7801 96.0046C47.334 95.4508 47.9915 95.0114 48.7151 94.7117C49.4387 94.4119 50.2143 94.2577 50.9976 94.2577C51.7808 94.2577 52.5564 94.4119 53.28 94.7117C54.0036 95.0114 54.6611 95.4508 55.215 96.0046L78.788 119.578L138.085 60.2904C139.204 59.1718 140.721 58.5435 142.302 58.5435C143.884 58.5435 145.401 59.1718 146.52 60.2904C147.638 61.4089 148.267 62.926 148.267 64.5078C148.267 66.0897 147.638 67.6067 146.52 68.7252L146.51 68.7153Z" fill="white"/>
</g>
<defs>
<filter id="filter0_d_1_2" x="-179.5" y="-99" width="552" height="621" filterUnits="userSpaceOnUse" color-interpolation-filters="sRGB">
<feFlood flood-opacity="0" result="BackgroundImageFix"/>
<feColorMatrix in="SourceAlpha" type="matrix" values="0 0 0 0 0 0 0 0 0 0 0 0 0 0 0 0 0 0 127 0" result="hardAlpha"/>
<feOffset/>
<feGaussianBlur stdDeviation="5"/>
<feComposite in2="hardAlpha" operator="out"/>
<feColorMatrix type="matrix" values="0 0 0 0 0 0 0 0 0 0 0 0 0 0 0 0 0 0 0.25 0"/>
<feBlend mode="normal" in2="BackgroundImageFix" result="effect1_dropShadow_1_2"/>
<feBlend mode="normal" in="SourceGraphic" in2="effect1_dropShadow_1_2" result="shape"/>
</filter>
</defs>
</svg>
