<svg width="942" height="441" viewBox="0 0 942 441" fill="none" xmlns="http://www.w3.org/2000/svg">
<path d="M0 135.53L3.8 125.08C15.24 107.31 37.5 101.12 55.45 113.82C62.13 118.54 68.78 129.47 67.99 137.77C67.34 144.64 60.6 152.47 53.92 153.7C48.39 154.72 52.8 147.69 53.35 145.62C55.95 135.72 53.44 121.47 42.11 118.65C26.34 114.73 14.28 133.87 13.06 147.32C11.72 162.12 25.34 179.79 40.3 181.46C61.63 183.83 99.77 167.1 118.29 156.53C119.96 155.58 129.13 147.69 129.05 153.76C128.98 158.89 110.63 178.31 106.24 182C87.1 198.07 57.76 209.17 33.75 197.01C18.19 189.13 4.72 170.07 1.12 153.14C0.79 151.59 1.51 149.61 0 148.51V135.51L0 135.53Z" fill="white"/>
<path d="M311.81 62.23C327.03 69.07 346.74 84.7 355.02 99.66C355.19 99.96 355.8 100.02 355.86 100.16C356.73 102.17 355.66 105.5 353.02 104.27C349.26 101.55 345.42 98.77 341.46 96.33C329.62 89.04 313.57 80.91 299.28 81.02C287.85 81.1 254.77 101.48 242.62 107.41C181.74 137.09 116.04 152.45 64.48 97.3C62.34 95.01 55.19 88.01 61.54 87.28C64.45 88.99 67.5 90.25 70.58 91.61C102.45 105.66 131.91 101.56 162.42 85.72C171.37 81.08 179.52 75.39 188.56 70.84C225.85 52.08 272.15 44.42 311.81 62.25V62.23Z" fill="white"/>
<path d="M566.81 103.73C574.13 108.77 584.88 118.77 589.99 125.91C591.13 127.51 595.27 133.41 593.45 134.97C592.76 135.14 591.99 135.12 591.3 134.99C588.65 134.5 584.31 129.96 581.89 128.36C563.64 116.32 547.04 108.56 525.12 116.48C498.88 125.97 475.37 141.81 449.58 152.35C393.02 175.47 343.74 174.69 301.99 127.9C301.21 127.03 296.97 122.84 296.94 122.27C296.87 120.66 298.02 118.85 299.71 119C300.18 119.04 305.63 122.28 306.9 122.86C347.64 141.52 378.34 130 414.58 109.96C462.19 83.64 518.22 70.23 566.8 103.71V103.73H566.81Z" fill="white"/>
<path d="M821.31 121.23C830.87 125.4 841.41 132.22 849.25 139.51C855.98 145.76 862.33 152.97 866.91 160.91C867.3 163.12 865.82 164.63 863.65 163.65L849.58 154.09C821.21 137.23 805.13 137.1 775.07 149.47C726.28 169.56 673.87 208.6 618.1 187.68C602.41 181.79 583.72 167.77 573.03 154.63C571.15 152.32 566.71 147.67 571.7 146.52C575.77 148.7 579.88 150.86 584.16 152.61C608.94 162.78 635.37 161.18 660.08 151.36C676.96 144.65 691.52 133.25 708.56 125.84C743.98 110.44 784.86 105.32 821.3 121.22H821.31V121.23Z" fill="white"/>
<path d="M794.79 196.75C818.96 212.38 837.31 239.42 842.89 267.9C843.07 268.81 843.67 273.63 843.53 274.2C843.45 274.52 841.5 275.42 841.17 275.44C839.46 275.55 834.1 268 832.53 266.28C807.93 239.33 773.03 209.33 733.41 220.69C703.58 229.25 682.43 259.83 649.24 257.55C624.18 255.83 602.95 237.91 587.99 218.91C586.11 216.52 581.88 213.25 582.53 209.9C582.55 209.82 583.56 208.71 583.63 208.68C585.71 207.93 590.12 211.71 592.08 212.72C616.63 225.32 641.18 232.39 667.62 220.39C687.15 211.53 700.07 192.19 720.44 184.69C745.63 175.41 772.57 182.38 794.8 196.76L794.79 196.75Z" fill="white"/>
<path d="M242.81 143.23C263.62 154.96 283.55 178.45 290.84 201.45C298.13 224.45 298.93 247.31 288.07 269.45C287.15 271.32 287.14 274.91 283.86 273.95C281.9 273.37 282.78 271.13 282.48 269.81C280.18 259.69 279.04 249.09 275.85 238.94C266.81 210.13 245.04 182.21 214.64 174.65C172.79 164.25 151.96 194.45 143.39 230.67C142.83 233.06 141.58 241.84 139.66 242.43C137.24 243.18 136.41 242.04 136.04 239.75C130.76 207.64 137.25 173.57 161.25 150.51C184.4 128.28 215.44 127.8 242.81 143.23Z" fill="white"/>
<path d="M517.82 178.22C540.58 194.19 553.49 220.98 561.48 246.82C562.1 249.38 559.94 250.47 557.62 249.88C554.55 246 551.6 241.93 548.28 238.24C518.24 204.83 473.73 194.44 430.91 206.69C394.88 217 363.89 241.14 344.04 272.31C341.69 274 339.96 273.19 339.63 270.38C342.4 263.83 344.92 257.13 347.91 250.68C359.86 224.95 377.84 197.76 401.05 180.81C432.53 157.82 485.05 155.22 517.83 178.21L517.82 178.22Z" fill="white"/>
<path d="M919.82 170.71C945.03 186.27 948.15 221.44 926.29 241.31C904.43 261.18 883.04 248.14 864.4 231.49C843.93 213.2 839.8 192.84 811.92 179.35C809.82 178.34 800.31 175.05 799.83 173.9C798.91 171.73 800.13 170.45 802.28 170.05C808.82 168.85 822.25 169.55 828.63 171.55C850.14 178.3 852.6 195.35 862.49 212.28C872.08 228.69 893.9 238.92 912.08 230.47C922.49 225.63 934.59 212.62 930.87 200.4C927.22 188.42 908.21 180.96 897.74 188.53C889.99 194.14 892.45 201.53 897.99 207.77C898.87 208.76 900.9 209.46 901.38 210.89C902.19 213.29 899.97 214.44 897.76 214C877.13 209.93 865.34 189.29 883.22 173.51C893.89 164.09 907.67 163.23 919.8 170.71H919.82Z" fill="white"/>
<path d="M630.82 44.72C650.15 56.03 665.55 84.3 656.7 106.48C652.47 117.07 639.32 129.24 627.7 130.48C611.38 132.22 593.01 113.83 597.15 97.43C599.31 88.88 612.97 77.84 621.21 85.07C623.23 86.84 628.58 95.35 624.15 96.47C622.7 96.84 621.25 94.94 620.13 94.65C614.09 93.1 608.16 98.15 608.98 104.3C609.4 107.46 613.92 113.37 616.72 115.03C624.18 119.47 631.6 118.83 637.28 112.32C654.21 92.92 634.78 68.86 616.2 60.08C587.3 46.43 549.81 47.75 519.92 57.7C517.22 58.6 508.1 63.34 506.01 62.3C504.93 61.76 504.66 60.01 505.25 59.03C505.4 58.78 509.29 55.99 509.92 55.58C524.96 46.01 546.66 37.97 564.31 35.58C584.33 32.87 613.08 34.33 630.82 44.71V44.72Z" fill="white"/>
<path d="M723.82 62.22C724.6 62.66 728.48 65.18 729.01 65.77C729.48 66.31 733.16 72.75 733.6 73.68C737.3 81.59 737.25 92.97 733.6 100.86C730.55 107.45 721.15 114.91 714.03 116.29C706.91 117.67 702.65 117.41 695.87 115.49C695.46 115.37 695.53 114.7 695.12 114.55C692.04 113.41 686.52 111.31 684.57 108.59C679.08 100.93 675.71 89.14 678.17 79.92C683.55 59.77 706.04 52.32 723.83 62.2V62.22H723.82Z" fill="white"/>
<path d="M443.32 32.73C449.17 35.05 455.96 41.2 458.69 47.1C459.89 49.7 461.74 54.98 462.01 57.78C462.75 65.6 458.01 80.07 451.17 84.45C438.5 92.56 421 92.61 410.25 80.54C389.41 57.12 414.11 21.15 443.32 32.73Z" fill="white"/>
<path d="M190.31 9.73C213.73 20.77 212.04 55.7 187.47 64.74C173.42 69.91 156.02 63.69 150.3 49.48C139.81 23.45 165.01 -2.2 190.32 9.72H190.31V9.73Z" fill="white"/>
<path d="M344.77 24.76C362.1 36.71 377.24 59.4 379.01 80.76C379.16 82.53 379.64 87.62 377.73 88.03C374.76 88.66 375.51 86.96 374.44 85.45C372.38 82.56 370.49 79.33 368.4 76.38C344.52 42.82 302.71 24.23 261.79 30.07C259.85 30.35 247.99 33.79 247.48 31.7C246.44 27.41 251.97 26.09 254.38 23.56C282.63 5.85 317.15 5.72001 344.77 24.77V24.76Z" fill="white"/>
<path d="M73.8089 357.583L67.1364 338.712C66.7398 337.721 66.3148 336.559 65.8614 335.227C65.4364 333.896 65.0256 332.451 64.6289 330.892C64.2323 332.479 63.8073 333.952 63.3539 335.312C62.9289 336.644 62.5181 337.806 62.1214 338.797L55.4914 357.583H73.8089ZM95.2289 381H85.3264C84.2214 381 83.3148 380.745 82.6064 380.235C81.9264 379.697 81.4164 379.017 81.0764 378.195L76.9114 366.422H52.3464L48.1814 378.195C47.8981 378.903 47.4023 379.555 46.6939 380.15C45.9856 380.717 45.0931 381 44.0164 381H34.0289L58.1264 319.332H71.1739L95.2289 381ZM168.937 319.332V381H157.674V343.132C157.674 342.339 157.688 341.489 157.717 340.582C157.773 339.676 157.858 338.755 157.972 337.82L140.334 371.267C139.371 373.109 137.883 374.03 135.872 374.03H134.087C133.095 374.03 132.217 373.803 131.452 373.35C130.687 372.868 130.077 372.174 129.624 371.267L111.902 337.692C111.987 338.684 112.057 339.647 112.114 340.582C112.171 341.489 112.199 342.339 112.199 343.132V381H100.937V319.332H110.627C111.165 319.332 111.647 319.347 112.072 319.375C112.497 319.403 112.865 319.488 113.177 319.63C113.517 319.743 113.814 319.942 114.069 320.225C114.352 320.48 114.622 320.848 114.877 321.33L132.132 354.225C132.67 355.217 133.166 356.237 133.619 357.285C134.101 358.333 134.554 359.41 134.979 360.515C135.404 359.382 135.843 358.277 136.297 357.2C136.778 356.123 137.288 355.089 137.827 354.097L154.954 321.33C155.209 320.848 155.478 320.48 155.762 320.225C156.045 319.942 156.342 319.743 156.654 319.63C156.994 319.488 157.362 319.403 157.759 319.375C158.184 319.347 158.68 319.332 159.247 319.332H168.937ZM194.621 381H181.786V319.332H194.621V381ZM237.524 349.592H258.689V375.05C255.544 377.345 252.186 379.031 248.616 380.107C245.074 381.156 241.32 381.68 237.354 381.68C232.282 381.68 227.692 380.901 223.584 379.342C219.475 377.756 215.962 375.56 213.044 372.755C210.125 369.95 207.873 366.621 206.286 362.767C204.699 358.914 203.906 354.707 203.906 350.145C203.906 345.527 204.657 341.291 206.159 337.437C207.689 333.584 209.856 330.269 212.661 327.492C215.466 324.716 218.852 322.548 222.819 320.99C226.814 319.432 231.276 318.652 236.206 318.652C238.756 318.652 241.136 318.865 243.346 319.29C245.556 319.687 247.596 320.253 249.466 320.99C251.336 321.698 253.05 322.548 254.609 323.54C256.167 324.532 257.584 325.622 258.859 326.812L255.161 332.507C254.594 333.414 253.858 333.967 252.951 334.165C252.044 334.363 251.053 334.137 249.976 333.485C248.956 332.862 247.95 332.309 246.959 331.827C245.995 331.317 244.961 330.878 243.856 330.51C242.751 330.142 241.547 329.858 240.244 329.66C238.94 329.462 237.439 329.362 235.739 329.362C232.877 329.362 230.284 329.858 227.961 330.85C225.638 331.842 223.654 333.244 222.011 335.057C220.396 336.871 219.149 339.052 218.271 341.602C217.393 344.152 216.954 347 216.954 350.145C216.954 353.545 217.435 356.591 218.399 359.282C219.362 361.946 220.722 364.198 222.479 366.04C224.235 367.882 226.332 369.284 228.769 370.247C231.234 371.211 233.968 371.692 236.971 371.692C239.011 371.692 240.824 371.494 242.411 371.097C244.026 370.672 245.599 370.106 247.129 369.397V359.027H240.159C239.337 359.027 238.685 358.815 238.204 358.39C237.75 357.937 237.524 357.37 237.524 356.69V349.592ZM328.695 350.145C328.695 354.65 327.93 358.829 326.4 362.682C324.899 366.536 322.76 369.865 319.983 372.67C317.235 375.475 313.92 377.685 310.038 379.3C306.156 380.887 301.85 381.68 297.118 381.68C292.386 381.68 288.08 380.887 284.198 379.3C280.316 377.685 276.987 375.475 274.21 372.67C271.434 369.865 269.28 366.536 267.75 362.682C266.249 358.829 265.498 354.65 265.498 350.145C265.498 345.64 266.249 341.475 267.75 337.65C269.28 333.797 271.434 330.467 274.21 327.662C276.987 324.857 280.316 322.662 284.198 321.075C288.08 319.46 292.386 318.652 297.118 318.652C301.85 318.652 306.156 319.46 310.038 321.075C313.92 322.662 317.235 324.872 319.983 327.705C322.76 330.51 324.899 333.839 326.4 337.692C327.93 341.517 328.695 345.668 328.695 350.145ZM315.648 350.145C315.648 346.915 315.223 344.025 314.373 341.475C313.523 338.897 312.29 336.715 310.675 334.93C309.089 333.117 307.148 331.742 304.853 330.807C302.586 329.844 300.008 329.362 297.118 329.362C294.228 329.362 291.635 329.844 289.34 330.807C287.045 331.742 285.09 333.117 283.475 334.93C281.889 336.715 280.67 338.897 279.82 341.475C278.97 344.025 278.545 346.915 278.545 350.145C278.545 353.403 278.97 356.322 279.82 358.9C280.67 361.45 281.889 363.617 283.475 365.402C285.09 367.187 287.045 368.562 289.34 369.525C291.635 370.46 294.228 370.927 297.118 370.927C300.008 370.927 302.586 370.46 304.853 369.525C307.148 368.562 309.089 367.187 310.675 365.402C312.29 363.617 313.523 361.45 314.373 358.9C315.223 356.322 315.648 353.403 315.648 350.145ZM371.412 331.147C371.015 331.799 370.604 332.281 370.179 332.592C369.783 332.876 369.259 333.017 368.607 333.017C367.984 333.017 367.304 332.805 366.567 332.38C365.859 331.927 365.023 331.445 364.059 330.935C363.096 330.425 361.991 329.957 360.744 329.532C359.498 329.079 358.039 328.852 356.367 328.852C353.42 328.852 351.21 329.518 349.737 330.85C348.264 332.153 347.527 333.867 347.527 335.992C347.527 337.352 347.924 338.486 348.717 339.392C349.539 340.271 350.601 341.036 351.904 341.687C353.236 342.339 354.738 342.92 356.409 343.43C358.081 343.94 359.795 344.507 361.552 345.13C363.309 345.725 365.023 346.433 366.694 347.255C368.366 348.077 369.854 349.111 371.157 350.357C372.489 351.604 373.551 353.134 374.344 354.947C375.166 356.732 375.577 358.914 375.577 361.492C375.577 364.297 375.081 366.932 374.089 369.397C373.126 371.834 371.724 373.973 369.882 375.815C368.04 377.628 365.759 379.059 363.039 380.107C360.348 381.156 357.288 381.68 353.859 381.68C351.904 381.68 349.949 381.482 347.994 381.085C346.068 380.688 344.198 380.136 342.384 379.427C340.599 378.719 338.914 377.869 337.327 376.877C335.74 375.886 334.352 374.781 333.162 373.562L336.902 367.527C337.214 367.074 337.624 366.706 338.134 366.422C338.644 366.111 339.183 365.955 339.749 365.955C340.514 365.955 341.322 366.238 342.172 366.805C343.022 367.372 343.999 367.995 345.104 368.675C346.209 369.355 347.484 369.978 348.929 370.545C350.403 371.112 352.159 371.395 354.199 371.395C357.174 371.395 359.469 370.715 361.084 369.355C362.728 367.995 363.549 365.969 363.549 363.277C363.549 361.719 363.139 360.458 362.317 359.495C361.524 358.532 360.475 357.724 359.172 357.072C357.869 356.421 356.381 355.868 354.709 355.415C353.038 354.933 351.324 354.409 349.567 353.842C347.81 353.276 346.096 352.596 344.424 351.802C342.753 351.009 341.265 349.961 339.962 348.657C338.659 347.354 337.596 345.739 336.774 343.812C335.981 341.886 335.584 339.492 335.584 336.63C335.584 334.335 336.038 332.111 336.944 329.957C337.851 327.804 339.183 325.892 340.939 324.22C342.696 322.548 344.849 321.202 347.399 320.182C349.978 319.162 352.924 318.652 356.239 318.652C359.951 318.652 363.379 319.233 366.524 320.395C369.698 321.528 372.375 323.115 374.557 325.155L371.412 331.147ZM460.287 350.145C460.287 354.65 459.522 358.801 457.992 362.597C456.49 366.366 454.351 369.61 451.574 372.33C448.826 375.05 445.511 377.175 441.629 378.705C437.748 380.235 433.441 381 428.709 381H404.994V319.332H428.709C433.441 319.332 437.748 320.097 441.629 321.627C445.511 323.157 448.826 325.297 451.574 328.045C454.351 330.765 456.49 334.009 457.992 337.777C459.522 341.546 460.287 345.668 460.287 350.145ZM447.197 350.145C447.197 346.915 446.772 344.011 445.922 341.432C445.072 338.854 443.853 336.672 442.267 334.887C440.68 333.102 438.739 331.728 436.444 330.765C434.178 329.802 431.599 329.32 428.709 329.32H417.829V371.012H428.709C431.599 371.012 434.178 370.545 436.444 369.61C438.739 368.647 440.68 367.272 442.267 365.487C443.853 363.674 445.072 361.478 445.922 358.9C446.772 356.322 447.197 353.403 447.197 350.145ZM482.492 329.32V345.172H503.062V354.82H482.492V371.012H508.927V381H469.657V319.332H508.927V329.32H482.492ZM575.229 370.63V381H538.637V319.332H551.387V370.63H575.229ZM640.722 350.145C640.722 354.65 639.957 358.829 638.427 362.682C636.925 366.536 634.786 369.865 632.009 372.67C629.261 375.475 625.946 377.685 622.064 379.3C618.183 380.887 613.876 381.68 609.144 381.68C604.413 381.68 600.106 380.887 596.224 379.3C592.343 377.685 589.013 375.475 586.237 372.67C583.46 369.865 581.307 366.536 579.777 362.682C578.275 358.829 577.524 354.65 577.524 350.145C577.524 345.64 578.275 341.475 579.777 337.65C581.307 333.797 583.46 330.467 586.237 327.662C589.013 324.857 592.343 322.662 596.224 321.075C600.106 319.46 604.413 318.652 609.144 318.652C613.876 318.652 618.183 319.46 622.064 321.075C625.946 322.662 629.261 324.872 632.009 327.705C634.786 330.51 636.925 333.839 638.427 337.692C639.957 341.517 640.722 345.668 640.722 350.145ZM627.674 350.145C627.674 346.915 627.249 344.025 626.399 341.475C625.549 338.897 624.317 336.715 622.702 334.93C621.115 333.117 619.174 331.742 616.879 330.807C614.613 329.844 612.034 329.362 609.144 329.362C606.254 329.362 603.662 329.844 601.367 330.807C599.072 331.742 597.117 333.117 595.502 334.93C593.915 336.715 592.697 338.897 591.847 341.475C590.997 344.025 590.572 346.915 590.572 350.145C590.572 353.403 590.997 356.322 591.847 358.9C592.697 361.45 593.915 363.617 595.502 365.402C597.117 367.187 599.072 368.562 601.367 369.525C603.662 370.46 606.254 370.927 609.144 370.927C612.034 370.927 614.613 370.46 616.879 369.525C619.174 368.562 621.115 367.187 622.702 365.402C624.317 363.617 625.549 361.45 626.399 358.9C627.249 356.322 627.674 353.403 627.674 350.145ZM683.438 331.147C683.042 331.799 682.631 332.281 682.206 332.592C681.809 332.876 681.285 333.017 680.633 333.017C680.01 333.017 679.33 332.805 678.593 332.38C677.885 331.927 677.049 331.445 676.086 330.935C675.122 330.425 674.017 329.957 672.771 329.532C671.524 329.079 670.065 328.852 668.393 328.852C665.447 328.852 663.237 329.518 661.763 330.85C660.29 332.153 659.553 333.867 659.553 335.992C659.553 337.352 659.95 338.486 660.743 339.392C661.565 340.271 662.627 341.036 663.931 341.687C665.262 342.339 666.764 342.92 668.436 343.43C670.107 343.94 671.822 344.507 673.578 345.13C675.335 345.725 677.049 346.433 678.721 347.255C680.392 348.077 681.88 349.111 683.183 350.357C684.515 351.604 685.577 353.134 686.371 354.947C687.192 356.732 687.603 358.914 687.603 361.492C687.603 364.297 687.107 366.932 686.116 369.397C685.152 371.834 683.75 373.973 681.908 375.815C680.067 377.628 677.786 379.059 675.066 380.107C672.374 381.156 669.314 381.68 665.886 381.68C663.931 381.68 661.976 381.482 660.021 381.085C658.094 380.688 656.224 380.136 654.411 379.427C652.626 378.719 650.94 377.869 649.353 376.877C647.767 375.886 646.378 374.781 645.188 373.562L648.928 367.527C649.24 367.074 649.651 366.706 650.161 366.422C650.671 366.111 651.209 365.955 651.776 365.955C652.541 365.955 653.348 366.238 654.198 366.805C655.048 367.372 656.026 367.995 657.131 368.675C658.236 369.355 659.511 369.978 660.956 370.545C662.429 371.112 664.186 371.395 666.226 371.395C669.201 371.395 671.496 370.715 673.111 369.355C674.754 367.995 675.576 365.969 675.576 363.277C675.576 361.719 675.165 360.458 674.343 359.495C673.55 358.532 672.502 357.724 671.198 357.072C669.895 356.421 668.407 355.868 666.736 355.415C665.064 354.933 663.35 354.409 661.593 353.842C659.837 353.276 658.122 352.596 656.451 351.802C654.779 351.009 653.292 349.961 651.988 348.657C650.685 347.354 649.622 345.739 648.801 343.812C648.007 341.886 647.611 339.492 647.611 336.63C647.611 334.335 648.064 332.111 648.971 329.957C649.877 327.804 651.209 325.892 652.966 324.22C654.722 322.548 656.876 321.202 659.426 320.182C662.004 319.162 664.951 318.652 668.266 318.652C671.977 318.652 675.406 319.233 678.551 320.395C681.724 321.528 684.402 323.115 686.583 325.155L683.438 331.147ZM736.316 348.53C738.384 348.53 740.169 348.275 741.671 347.765C743.172 347.227 744.405 346.504 745.368 345.597C746.331 344.662 747.04 343.572 747.493 342.325C747.946 341.078 748.173 339.718 748.173 338.245C748.173 335.327 747.196 333.06 745.241 331.445C743.314 329.83 740.367 329.022 736.401 329.022H729.771V348.53H736.316ZM766.193 381H754.676C752.522 381 750.964 380.178 750.001 378.535L738.271 359.622C737.789 358.886 737.251 358.347 736.656 358.007C736.089 357.667 735.239 357.497 734.106 357.497H729.771V381H717.021V319.332H736.401C740.707 319.332 744.391 319.786 747.451 320.692C750.511 321.571 753.018 322.803 754.973 324.39C756.928 325.977 758.359 327.875 759.266 330.085C760.172 332.267 760.626 334.675 760.626 337.31C760.626 339.35 760.328 341.291 759.733 343.132C759.166 344.946 758.331 346.603 757.226 348.105C756.121 349.607 754.761 350.938 753.146 352.1C751.531 353.262 749.689 354.197 747.621 354.905C748.442 355.358 749.207 355.911 749.916 356.562C750.624 357.186 751.261 357.937 751.828 358.815L766.193 381ZM785.056 381H772.221V319.332H785.056V381ZM857.538 350.145C857.538 354.65 856.773 358.829 855.243 362.682C853.741 366.536 851.602 369.865 848.826 372.67C846.077 375.475 842.762 377.685 838.881 379.3C834.999 380.887 830.692 381.68 825.961 381.68C821.229 381.68 816.922 380.887 813.041 379.3C809.159 377.685 805.83 375.475 803.053 372.67C800.276 369.865 798.123 366.536 796.593 362.682C795.091 358.829 794.341 354.65 794.341 350.145C794.341 345.64 795.091 341.475 796.593 337.65C798.123 333.797 800.276 330.467 803.053 327.662C805.83 324.857 809.159 322.662 813.041 321.075C816.922 319.46 821.229 318.652 825.961 318.652C830.692 318.652 834.999 319.46 838.881 321.075C842.762 322.662 846.077 324.872 848.826 327.705C851.602 330.51 853.741 333.839 855.243 337.692C856.773 341.517 857.538 345.668 857.538 350.145ZM844.491 350.145C844.491 346.915 844.066 344.025 843.216 341.475C842.366 338.897 841.133 336.715 839.518 334.93C837.931 333.117 835.991 331.742 833.696 330.807C831.429 329.844 828.851 329.362 825.961 329.362C823.071 329.362 820.478 329.844 818.183 330.807C815.888 331.742 813.933 333.117 812.318 334.93C810.731 336.715 809.513 338.897 808.663 341.475C807.813 344.025 807.388 346.915 807.388 350.145C807.388 353.403 807.813 356.322 808.663 358.9C809.513 361.45 810.731 363.617 812.318 365.402C813.933 367.187 815.888 368.562 818.183 369.525C820.478 370.46 823.071 370.927 825.961 370.927C828.851 370.927 831.429 370.46 833.696 369.525C835.991 368.562 837.931 367.187 839.518 365.402C841.133 363.617 842.366 361.45 843.216 358.9C844.066 356.322 844.491 353.403 844.491 350.145ZM900.255 331.147C899.858 331.799 899.447 332.281 899.022 332.592C898.625 332.876 898.101 333.017 897.45 333.017C896.826 333.017 896.146 332.805 895.41 332.38C894.701 331.927 893.865 331.445 892.902 330.935C891.939 330.425 890.834 329.957 889.587 329.532C888.34 329.079 886.881 328.852 885.21 328.852C882.263 328.852 880.053 329.518 878.58 330.85C877.106 332.153 876.37 333.867 876.37 335.992C876.37 337.352 876.766 338.486 877.56 339.392C878.381 340.271 879.444 341.036 880.747 341.687C882.079 342.339 883.58 342.92 885.252 343.43C886.924 343.94 888.638 344.507 890.395 345.13C892.151 345.725 893.865 346.433 895.537 347.255C897.209 348.077 898.696 349.111 900 350.357C901.331 351.604 902.394 353.134 903.187 354.947C904.009 356.732 904.42 358.914 904.42 361.492C904.42 364.297 903.924 366.932 902.932 369.397C901.969 371.834 900.566 373.973 898.725 375.815C896.883 377.628 894.602 379.059 891.882 380.107C889.19 381.156 886.13 381.68 882.702 381.68C880.747 381.68 878.792 381.482 876.837 381.085C874.91 380.688 873.04 380.136 871.227 379.427C869.442 378.719 867.756 377.869 866.17 376.877C864.583 375.886 863.195 374.781 862.005 373.562L865.745 367.527C866.056 367.074 866.467 366.706 866.977 366.422C867.487 366.111 868.025 365.955 868.592 365.955C869.357 365.955 870.165 366.238 871.015 366.805C871.865 367.372 872.842 367.995 873.947 368.675C875.052 369.355 876.327 369.978 877.772 370.545C879.245 371.112 881.002 371.395 883.042 371.395C886.017 371.395 888.312 370.715 889.927 369.355C891.57 367.995 892.392 365.969 892.392 363.277C892.392 361.719 891.981 360.458 891.16 359.495C890.366 358.532 889.318 357.724 888.015 357.072C886.711 356.421 885.224 355.868 883.552 355.415C881.88 354.933 880.166 354.409 878.41 353.842C876.653 353.276 874.939 352.596 873.267 351.802C871.595 351.009 870.108 349.961 868.805 348.657C867.501 347.354 866.439 345.739 865.617 343.812C864.824 341.886 864.427 339.492 864.427 336.63C864.427 334.335 864.88 332.111 865.787 329.957C866.694 327.804 868.025 325.892 869.782 324.22C871.539 322.548 873.692 321.202 876.242 320.182C878.82 319.162 881.767 318.652 885.082 318.652C888.794 318.652 892.222 319.233 895.367 320.395C898.54 321.528 901.218 323.115 903.4 325.155L900.255 331.147Z" fill="white"/>
</svg>
